HIERARCHY
ROOT Hips
{
	OFFSET -14.64140 90.27770 -84.91600
	CHANNELS 6 Xposition Yposition Zposition Zrotation Xrotation Yrotation
	JOINT Spine
	{
		OFFSET 0.00000 13.20850 -1.60436
		CHANNELS 3 Zrotation Xrotation Yrotation
		JOINT Spine1
		{
			OFFSET 0.00000 8.61716 0.00000
			CHANNELS 3 Zrotation Xrotation Yrotation
			JOINT Spine2
			{
				OFFSET 0.00000 8.61717 0.00000
				CHANNELS 3 Zrotation Xrotation Yrotation
				JOINT Spine3
				{
					OFFSET 0.00000 8.61717 0.00000
					CHANNELS 3 Zrotation Xrotation Yrotation
					JOINT Neck
					{
						OFFSET 0.00000 11.07920 1.10792
						CHANNELS 3 Zrotation Xrotation Yrotation
						JOINT Neck1
						{
							OFFSET 0.00000 7.08032 0.00000
							CHANNELS 3 Zrotation Xrotation Yrotation
							JOINT Head
							{
								OFFSET 0.00000 7.08031 0.00000
								CHANNELS 3 Zrotation Xrotation Yrotation
								End site
								{
									OFFSET 0.00000 0.00000 0.00000
								}
							}
						}
					}
					JOINT RightShoulder
					{
						OFFSET -0.01000 7.91373 5.19711
						CHANNELS 3 Zrotation Xrotation Yrotation
						JOINT RightArm
						{
							OFFSET -18.41580 0.00000 0.00000
							CHANNELS 3 Zrotation Xrotation Yrotation
							JOINT RightForeArm
							{
								OFFSET -29.11090 0.00000 0.00000
								CHANNELS 3 Zrotation Xrotation Yrotation
								JOINT RightHand
								{
									OFFSET -24.65040 0.00000 0.00000
									CHANNELS 3 Zrotation Xrotation Yrotation
									JOINT RightHandThumb1
									{
										OFFSET -5.35114 -0.85590 3.97906
										CHANNELS 3 Zrotation Xrotation Yrotation
										JOINT RightHandThumb2
										{
											OFFSET -4.52789 0.00000 0.00000
											CHANNELS 3 Zrotation Xrotation Yrotation
											JOINT RightHandThumb3
											{
												OFFSET -2.46976 0.00000 0.00000
												CHANNELS 3 Zrotation Xrotation Yrotation
												End site
												{
													OFFSET 0.00000 0.00000 0.00000
												}
											}
										}
									}
									JOINT RightHandIndex1
									{
										OFFSET -14.26970 0.00000 2.88139
										CHANNELS 3 Zrotation Xrotation Yrotation
										JOINT RightHandIndex2
										{
											OFFSET -5.48836 0.00000 0.00000
											CHANNELS 3 Zrotation Xrotation Yrotation
											JOINT RightHandIndex3
											{
												OFFSET -3.01859 0.00000 0.00000
												CHANNELS 3 Zrotation Xrotation Yrotation
												End site
												{
													OFFSET 0.00000 0.00000 0.00000
												}
											}
										}
									}
									JOINT RightHandMiddle1
									{
										OFFSET -14.26970 0.00000 -0.09147
										CHANNELS 3 Zrotation Xrotation Yrotation
										JOINT RightHandMiddle2
										{
											OFFSET -6.17441 0.00000 0.00000
											CHANNELS 3 Zrotation Xrotation Yrotation
											JOINT RightHandMiddle3
											{
												OFFSET -3.56743 0.00000 0.00000
												CHANNELS 3 Zrotation Xrotation Yrotation
												End site
												{
													OFFSET 0.00000 0.00000 0.00000
												}
											}
										}
									}
									JOINT RightHandRing1
									{
										OFFSET -12.69180 0.00000 -3.06433
										CHANNELS 3 Zrotation Xrotation Yrotation
										JOINT RightHandRing2
										{
											OFFSET -5.62556 0.00000 0.00000
											CHANNELS 3 Zrotation Xrotation Yrotation
											JOINT RightHandRing3
											{
												OFFSET -3.56744 0.00000 0.00000
												CHANNELS 3 Zrotation Xrotation Yrotation
												End site
												{
													OFFSET 0.00000 0.00000 0.00000
												}
											}
										}
									}
									JOINT RightHandPinky1
									{
										OFFSET -11.11390 0.00000 -6.03719
										CHANNELS 3 Zrotation Xrotation Yrotation
										JOINT RightHandPinky2
										{
											OFFSET -4.52789 0.00000 0.00000
											CHANNELS 3 Zrotation Xrotation Yrotation
											JOINT RightHandPinky3
											{
												OFFSET -2.46976 0.00000 0.00000
												CHANNELS 3 Zrotation Xrotation Yrotation
												End site
												{
													OFFSET 0.00000 0.00000 0.00000
												}
											}
										}
									}
								}
							}
						}
					}
					JOINT LeftShoulder
					{
						OFFSET 0.01000 7.91373 5.19711
						CHANNELS 3 Zrotation Xrotation Yrotation
						JOINT LeftArm
						{
							OFFSET 18.41580 0.00000 0.00000
							CHANNELS 3 Zrotation Xrotation Yrotation
							JOINT LeftForeArm
							{
								OFFSET 29.11090 0.00000 0.00000
								CHANNELS 3 Zrotation Xrotation Yrotation
								JOINT LeftHand
								{
									OFFSET 24.65040 0.00000 0.00000
									CHANNELS 3 Zrotation Xrotation Yrotation
									JOINT LeftHandThumb1
									{
										OFFSET 5.35114 -0.85590 3.97906
										CHANNELS 3 Zrotation Xrotation Yrotation
										JOINT LeftHandThumb2
										{
											OFFSET 4.52789 0.00000 0.00000
											CHANNELS 3 Zrotation Xrotation Yrotation
											JOINT LeftHandThumb3
											{
												OFFSET 2.46977 0.00000 0.00000
												CHANNELS 3 Zrotation Xrotation Yrotation
												End site
												{
													OFFSET 0.00000 0.00000 0.00000
												}
											}
										}
									}
									JOINT LeftHandIndex1
									{
										OFFSET 14.26970 0.00000 2.88139
										CHANNELS 3 Zrotation Xrotation Yrotation
										JOINT LeftHandIndex2
										{
											OFFSET 5.48836 0.00000 0.00000
											CHANNELS 3 Zrotation Xrotation Yrotation
											JOINT LeftHandIndex3
											{
												OFFSET 3.01859 0.00000 0.00000
												CHANNELS 3 Zrotation Xrotation Yrotation
												End site
												{
													OFFSET 0.00000 0.00000 0.00000
												}
											}
										}
									}
									JOINT LeftHandMiddle1
									{
										OFFSET 14.26970 0.00000 -0.09147
										CHANNELS 3 Zrotation Xrotation Yrotation
										JOINT LeftHandMiddle2
										{
											OFFSET 6.17440 0.00000 0.00000
											CHANNELS 3 Zrotation Xrotation Yrotation
											JOINT LeftHandMiddle3
											{
												OFFSET 3.56744 0.00000 0.00000
												CHANNELS 3 Zrotation Xrotation Yrotation
												End site
												{
													OFFSET 0.00000 0.00000 0.00000
												}
											}
										}
									}
									JOINT LeftHandRing1
									{
										OFFSET 12.69180 0.00000 -3.06433
										CHANNELS 3 Zrotation Xrotation Yrotation
										JOINT LeftHandRing2
										{
											OFFSET 5.62556 0.00000 0.00000
											CHANNELS 3 Zrotation Xrotation Yrotation
											JOINT LeftHandRing3
											{
												OFFSET 3.56744 0.00000 0.00000
												CHANNELS 3 Zrotation Xrotation Yrotation
												End site
												{
													OFFSET 0.00000 0.00000 0.00000
												}
											}
										}
									}
									JOINT LeftHandPinky1
									{
										OFFSET 11.11390 0.00000 -6.03719
										CHANNELS 3 Zrotation Xrotation Yrotation
										JOINT LeftHandPinky2
										{
											OFFSET 4.52789 0.00000 0.00000
											CHANNELS 3 Zrotation Xrotation Yrotation
											JOINT LeftHandPinky3
											{
												OFFSET 2.46976 0.00000 0.00000
												CHANNELS 3 Zrotation Xrotation Yrotation
												End site
												{
													OFFSET 0.00000 0.00000 0.00000
												}
											}
										}
									}
								}
							}
						}
					}
					JOINT pCube4
					{
						OFFSET 0.00000 10.91090 1.10792
						CHANNELS 3 Zrotation Xrotation Yrotation
						End site
						{
							OFFSET 0.00000 0.00000 0.00000
						}
					}
				}
			}
		}
	}
	JOINT RightUpLeg
	{
		OFFSET -9.98441 0.00000 0.00000
		CHANNELS 3 Zrotation Xrotation Yrotation
		JOINT RightLeg
		{
			OFFSET 0.00000 -42.11790 0.00000
			CHANNELS 3 Zrotation Xrotation Yrotation
			JOINT RightFoot
			{
				OFFSET 0.00000 -45.00020 -0.00001
				CHANNELS 3 Zrotation Xrotation Yrotation
				JOINT RightForeFoot
				{
					OFFSET 0.00000 -3.74820 0.00000
					CHANNELS 3 Zrotation Xrotation Yrotation
					JOINT RightToeBase
					{
						OFFSET 0.00000 0.06325 14.43120
						CHANNELS 3 Zrotation Xrotation Yrotation
						End site
						{
							OFFSET 0.00000 0.00000 0.00000
						}
					}
				}
			}
		}
	}
	JOINT LeftUpLeg
	{
		OFFSET 9.98441 0.00000 0.00000
		CHANNELS 3 Zrotation Xrotation Yrotation
		JOINT LeftLeg
		{
			OFFSET 0.00000 -42.11800 0.00000
			CHANNELS 3 Zrotation Xrotation Yrotation
			JOINT LeftFoot
			{
				OFFSET 0.00000 -45.00070 0.00000
				CHANNELS 3 Zrotation Xrotation Yrotation
				JOINT LeftForeFoot
				{
					OFFSET 0.00000 -3.74824 0.00000
					CHANNELS 3 Zrotation Xrotation Yrotation
					JOINT LeftToeBase
					{
						OFFSET 0.00000 0.06325 14.43110
						CHANNELS 3 Zrotation Xrotation Yrotation
						End site
						{
							OFFSET 0.00000 0.00000 0.00000
						}
					}
				}
			}
		}
	}
}
MOTION
Frames: 4
Frame Time: 0.050000
0.018488752445566404 0.04337880145501713 0.00047926498636685026 0.025417916655035285 0.045734759247615345 0.006041793620551927 4.424925753924564 2.9860543653634766 -2.077027402352341 -0.6924695057981419 3.591486170589911 0.38179880480148065 -0.6628634867628151 -1.2609492103556685 0.7045044742470644 -0.41358299579338287 -0.5093578363170381 -0.34821877631516013 0.24981383048808556 13.347905931612264 -2.0033296177458855 0.41068433734913634 -0.017194306547628914 -4.61399990112056 1.1350316392908268 -16.011165099121627 -0.3866146885525791 -11.194911577262646 3.7497076265753844 -17.06064870020365 78.43800613803826 -4.059943816587808 19.975716530051006 11.513193641613759 3.8525354181130456 80.35498434791147 13.190487864217399 -0.3357156848859596 -1.5611701203478854 4.518895725137182 -0.13906708505858048 -1.583126851062971 -0.022738228214681057 -0.005548627772461653 -56.21924503526575 0.013775500733234287 -0.043220734858272734 -56.25195955454514 -38.81445884119449 0.040551865311221694 -0.03840746570450537 -0.00555695556857673 -0.019316339705317372 0.034384976742755764 -0.005113329616635253 -0.04844191530477748 -0.0037559439287483927 -36.713102194237024 -0.03812300758160838 -0.026197791560078305 0.014302424801133341 0.04844320449216535 -0.016665897985611394 0.0008400815759634892 0.034345882147191906 0.03180985596034162 -19.77486985166797 0.016001441700442546 -0.005553275993759375 0.0319593500158071 0.01556095937588958 0.000949247931465794 0.02160151003200086 -0.00648410797459736 0.010371081967419376 24.070850691634337 -0.022756251237331528 0.04146429064233362 28.819481854599662 0.02385756112199335 0.004830648639357071 28.87643508861997 0.034785581884358714 0.01171788524154866 11.074728486945505 2.5431139855461637 14.520161624580972 -69.9768803323534 12.342413860436876 -22.894875148242296 -5.201039915736016 -1.4580980211599202 -84.34758926322273 -15.38141617733772 -0.4088350035957744 -2.182382517660344 -0.4761544831715033 0.08875948785385497 -8.097391155102041 -0.033099619902593566 -0.01739126937202643 44.565982240417036 0.006665355820429373 -0.04722635904220857 44.58862321042084 12.418831522541847 -0.0056667041481628195 -0.015945120320819905 -0.018881846682871357 0.000337029363731126 0.025124458499943884 0.00497766668083131 0.018189196307265506 0.04971112385751842 11.110699923443951 -0.007711324353446948 0.010076371079517383 -0.031484778412603755 0.04205396436245022 -6.006096328982478e-05 0.006969583095035509 0.007606549740968571 -0.029652716145712268 4.773841563356239 -0.045419010292497786 0.032954129928749236 -0.0017987305424383639 -0.03271169266720226 0.001464455224196369 0.008802857622268795 -0.010123841392645412 -0.012480007730066455 -5.62401554061788 0.02255567301942689 0.01070069955348056 -6.688133548927856 -0.04052531418471242 0.0014431756989367389 -6.750150732687669 -0.029746172285576352 -0.017109054546600486 -0.014522458058485689 -0.04662391411123565 -0.02067118842122995 8.013129161119718 3.5111908315024443 -19.210793880992995 0.02392780425990155 10.40339620219271 -0.028808477807425525 -5.633381153819788 -15.687633151888326 3.2313343260558822 0.0011749932769263842 0.038415137529851866 -0.015225016872757423 -0.008073759533378846 4.7357271240851295 -0.03928604452793891 12.442401339279552 -8.287121289215069 6.862629874040398 0.03857451759656176 46.36991867286882 -0.005784623685203928 -4.289663716021695 -14.710802234451101 -3.8789554988309143 0.020772458085405784 -0.002277714517759745 0.026876622177358155 -0.01829109943503611 -10.754384588656562 0.04014279204429057 
-0.0020363908694334505 0.019121435516092827 0.027383489209049174 0.04637248871368498 -0.02457330011880754 0.041772743791426425 4.5576381256667595 2.7766899663378974 -2.1493652948209245 -0.6916930126727276 3.52574547810911 0.39801863569778423 -0.7030403913547759 -1.3886835733666651 0.6142236720872014 -0.4762713006634393 -0.5460688485323048 -0.32148278185367396 0.12845857082231327 13.780076753510153 -1.778481693934107 0.4359779203744983 0.19041708298436036 -3.872640452299441 1.0052856528583496 -15.695412952739659 -0.36568257361254325 -11.791205565284224 3.9460406794253076 -16.8477693304474 78.79756354104573 -5.073387242346032 24.232227200861036 13.54738728637768 3.2718090647794784 84.62524124159532 12.369124959298032 -0.3263616039515002 -1.4951501471520596 4.499659423876439 -0.15236975284841428 -1.5485701460438748 0.011360844609373207 0.046233803778404754 -56.19965106822736 -0.0003997847780348582 -0.02690857393791407 -56.260865143486924 -38.75936477343714 0.009397162679828286 -0.02858876710841731 0.04531021275490795 -0.026155926212467474 -8.92815589519284e-05 -0.024995236963439253 0.035916305737332406 -0.011078088431336718 -36.73026170621677 0.02495897742138481 0.01779558471061635 -0.008673402941806132 0.0219515515335406 -0.04921021740078687 -0.04382743403893036 -0.0049945940242646465 0.0031746882073751446 -19.74194515201302 0.011042536678109545 -0.020715012268834987 0.028613903818200406 -0.03152463381096588 0.00668948809752725 0.006824832785598936 0.03349178971367341 -0.011117708337846028 24.03779709961915 0.04822638025492812 -0.012567190167142774 28.847413646830507 0.0015660921929140498 -0.01210060531922169 28.882046531290744 0.04360723369474091 0.01868433438436177 11.971510383582917 2.7892349224725037 14.281736563609615 -70.00173161572155 12.024687409585301 -27.540781206402915 -3.9890949767193344 -3.1883190676362667 -89.32725153222542 -13.571690533961593 0.11833766146445966 -3.2026518250588194 -0.5192836396256818 0.09543039982767668 -8.148011147685686 -0.03837920257565298 -0.02578249029146289 44.5697817450771 -0.008630542060227392 0.007165854937996841 44.55532150383336 12.451735227406262 0.019424398002810733 0.010196945079191848 -0.008899871988684548 0.041916658656151316 -0.040425550746004305 -0.005182154665323066 0.022479580448608517 -0.016056948139686174 11.081804055523815 0.024238470904547643 -0.024817693031293456 -0.003296392635295008 -0.012324120275622423 0.02611872128305994 0.04035175046424175 0.017026863821497446 -0.026173351985185195 4.819745123842918 0.0010514017126092429 -0.003678780725501218 -0.0008477772922158472 -0.006750836479461777 0.0031538749892954356 0.012182735151189485 0.03378712437437251 0.04653905878041418 -5.601774045452787 -0.02955989186000153 -0.023989314999989846 -6.6949546213895 0.028380794921472666 -0.03952989788696942 -6.73216617574965 0.0008088129645340195 -0.002845749192994474 0.04844386154285096 -0.003390856231082788 -0.024099908484172018 8.054949240105618 3.5428850399913374 -19.191831064252288 -0.01859963871642585 10.431941297319247 0.02103199479010885 -5.588253733232038 -15.634050250067974 3.216045455107202 0.025925779305097246 0.025353705764082853 0.03441580882802124 0.04424379879800141 4.717381569341011 -0.040099899179098834 12.459944489919527 -8.282746417093527 6.900917846917377 0.03615213554548947 46.395938775891025 -0.035293504167035555 -4.278956505218935 -14.742132021623634 -3.873054035057172 0.008608625813488271 0.045790542073426935 -0.007668055783982252 -0.0328594258551415 -10.715197796410003 0.014344757966077102 
-0.00042638111920050356 -0.03892507316712832 -0.024669996437302055 0.005193340702780376 -0.03655212159556008 -0.04234710106478734 4.645877406853185 2.622846383788939 -2.0971059684964444 -0.7527226771727908 3.4922414682420877 0.4181554405895134 -0.6210372043238263 -1.4134580004824586 0.564296187298169 -0.5923066774061497 -0.605403361735705 -0.2846818569544135 0.08931724047937481 13.964382046119288 -1.4676512945611664 0.4100326490056016 0.3149767107521971 -3.052546272218969 0.9241054500851736 -15.460608362013579 -0.2688933514581096 -12.091317095160825 4.004185730414799 -16.652879889309325 78.86301456607116 -5.494000654623814 27.06104470082485 14.16283062612306 2.7380999222660236 87.10516361913324 11.72430251731186 -0.30250273957677953 -1.3034945457055316 4.568997687613336 -0.10041575211113907 -1.5542286356814938 0.006414806999526692 0.008704851168744162 -56.25950326634384 0.018002988705402505 0.043915271226588656 -56.20007373045816 -38.72955770419484 -0.033910851793252185 -0.03796001948621993 0.014892964054141018 -0.033285288854102334 -0.040926936367663654 -9.159298646054101e-06 -0.0023534455531336123 0.021567846050884902 -36.69823976966587 0.04935953892117846 -0.004833861578125779 -0.0493157964030108 -0.0002450198671294262 -0.014374577011588698 0.006363771914153825 0.03153226626717973 0.008903199215186335 -19.725553983401433 0.012108654579987884 -0.018061417604858566 0.03581177381365608 -0.04997420034860823 -0.040816108166788274 -0.0350890241907363 -0.020226895635904886 -0.03283443438651339 24.057399687082572 0.023627395669455122 0.012737305725903557 28.880143718444376 0.020809281951746788 0.01241955633318977 28.82143899749264 -0.01467517922772726 -0.02787832719832357 12.551831877062465 2.8658366630638854 14.197942677484619 -70.20812338939275 11.714372676151953 -31.803459534054817 -2.1053588636381524 -4.569091016609285 -92.78103944303759 -11.681583801347074 0.914263741332795 -4.348549088501356 -0.4630207636852684 0.08891676631307033 -8.168654723212807 -0.010667689167749779 -0.026265834010589535 44.56330357268514 0.0033955039343633387 0.03413323616437798 44.56718801934427 12.473841007118851 0.0021322014204552143 -0.028342035652846476 0.038796021181031703 -0.009574337834138542 0.04155424624345485 -0.004390979821558019 -0.021051225735426074 -0.022852709655378244 11.134353099075334 0.03408873521669114 -0.025617700026019697 -0.009941241308776678 0.048694352392592115 0.04179497508703094 0.003134016040390878 0.007103269945652519 0.044620900387319404 4.748109429011505 0.009189109921758224 0.018217178416498763 0.01034714795734155 0.028956934915878363 0.04932909469548017 -0.0219190886151079 -0.027818687999709855 0.006507749933069922 -5.642308333499016 -0.029600864950725225 0.01765115988082154 -6.685222466648274 -0.020799674158547547 -0.03183316722849636 -6.724948506316634 0.010459980576456298 -0.026031662285459233 0.02609551476688325 -0.04537729761768413 0.01484164837997274 8.062192894427241 3.5152471777752607 -19.184616942050294 0.03609465835583328 10.423758302400945 -0.033960204219554854 -5.6465021041755055 -15.674992400414641 3.1739186563969857 -0.047934007778843234 0.03660872090166664 0.013169132586305851 0.015409046961945247 4.739009806279716 -0.006760548710863814 12.480963444212353 -8.245586103618075 6.892935676703564 -0.02612299138784727 46.37520799407783 0.040265930117240535 -4.3303589733557715 -14.711532029499278 -3.847052580899574 -0.012632457223070022 -0.017444009729975483 0.012303797351305094 0.0487655790812978 -10.706291477911494 -0.0427684719817774 
0.00027113311525972153 -0.04021920598545828 -0.013984849764354585 -0.012966007226370983 -0.019234923399598914 0.011568286821572453 4.632855642145223 2.5205797496295554 -2.169979307208245 -0.725712810518887 3.446627181755496 0.3615680313267334 -0.6749727291647823 -1.423451830506454 0.37073659745885856 -0.5642266023549943 -0.5216043647383157 -0.3424797200054529 -0.00236707041902489 14.30640422863808 -1.2679388565022167 0.4379674703403434 0.4850930943318219 -2.345811987808018 0.893681272150399 -15.255991881132108 -0.23109285116520864 -12.152623870601802 4.0983482765220876 -16.34732564182318 79.14839630627311 -4.894577350697498 29.025864785072347 13.408778666895339 2.386168503614544 88.83533398260658 11.071033565201178 -0.2266890027528695 -1.0180331775511469 4.528408847684244 -0.16397567465309684 -1.5860128600400154 0.022705489006427756 0.02952142281735348 -56.24387946479763 -0.04768529398959269 0.029985369044369815 -56.25591282115548 -38.740884301798474 0.04699151458970286 -0.04563945496077448 0.0194391236414728 -0.04452166598842631 -0.044509973614721275 -0.019883591378051475 -0.029501098584277737 -0.015115299266857377 -36.712358206855406 -0.03923972170736598 -0.012843915232369297 -0.039268579729667547 -0.003973845174313364 -0.01807119117925516 0.045823321567185236 0.03147956019231495 -0.009560341469916923 -19.75215568263625 0.049157887189644936 0.021540085019635693 0.006293771757270364 0.047174210790154776 0.04662505906465625 0.01828591049243594 -0.020268967054294793 -0.006629289890133692 24.095675163189124 0.04783746652552681 0.01039512296147528 28.869398995645476 0.04798174177199577 0.0009616969007434272 28.830026525160008 -0.04379265621781115 0.03933526733371673 13.126254920176411 2.969002066725458 13.997288203910257 -70.67885677980611 11.789786029362741 -36.23423377495143 0.5328544875852532 -5.821297653936391 -95.18066520624085 -9.935559272067701 2.0883587709528513 -5.5900731598281865 -0.4442753316044941 0.10919907181400683 -8.144977981578934 -0.025196646331197906 0.014079650464516726 44.59957022372558 -0.015373328977466034 0.015354225134319097 44.54601053008078 12.451913810133846 -0.024129276741977863 -0.046395128365857324 0.01663049793632593 0.038349754761471753 0.012560432994336262 -0.020371801184754155 0.0224197081946182 -0.048612556567669184 11.138123222884946 0.007816362973483421 0.022857083568143297 0.00607504770203162 0.02890417761125148 -0.00993466358878143 0.01699823083504325 -0.007274605996463764 -0.02648251037709007 4.759174306849106 0.0009722192984528872 -0.015635037235197945 -0.011977801992932689 -0.030472439384071744 -0.02779351881472648 -0.02546288970830837 -0.0003049995821150778 0.004526940972008044 -5.622125612173394 0.03792318222793704 0.03160170399863038 -6.70930702982184 0.0441002059050997 0.01366786925062415 -6.673238763382141 0.024951413027379236 -0.025328016529575042 0.016975822543746587 0.02114421018388438 -0.017485958857648524 8.06756994688701 3.471467605559691 -19.196595202671826 -0.04705205370817445 10.444899924046826 -0.009218369908549778 -5.633303275111123 -15.624511984335932 3.16059530304649 0.0231109599819474 0.033906546434635934 0.02625616117753355 -0.007051211916001031 4.747022897962227 -0.003582670689500426 12.465728213746893 -8.194979482623467 6.87543891094078 0.006716916470636536 46.37034826561759 0.026080137568212012 -4.280606327972157 -14.747803329295364 -3.82066238331728 0.03863294937862727 -0.03188754602671366 0.007499635795153815 0.0328577651562859 -10.708238861760805 0.00955267021574577 
